<?xml version="1.0" standalone="no"?>
<!DOCTYPE svg PUBLIC "-//W3C//DTD SVG 20010904//EN"
 "http://www.w3.org/TR/2001/REC-SVG-20010904/DTD/svg10.dtd">
<svg version="1.0" xmlns="http://www.w3.org/2000/svg"
 width="371.000000pt" height="371.000000pt" viewBox="0 0 371.000000 371.000000"
 preserveAspectRatio="xMidYMid meet">
<metadata>
Created by potrace 1.11, written by Peter Selinger 2001-2013
</metadata>
<g transform="translate(0.000000,371.000000) scale(0.100000,-0.100000)"
fill="#000000" stroke="none">
<path d="M2689 3666 c-2 -2 -53 -7 -114 -10 -60 -4 -141 -9 -180 -11 -38 -3
-164 -7 -279 -10 -115 -3 -210 -6 -212 -8 -1 -1 -4 -29 -7 -62 -2 -45 -11 -71
-32 -103 -25 -38 -27 -45 -15 -70 6 -15 19 -52 26 -82 8 -30 19 -72 25 -94
l10 -38 112 5 c84 5 137 14 211 37 55 16 106 30 115 30 13 0 17 -13 19 -63 2
-34 7 -78 12 -97 14 -54 26 -131 34 -215 13 -141 16 -189 22 -350 7 -212 7
-991 0 -1065 -10 -105 -18 -155 -32 -190 -7 -19 -22 -74 -33 -122 -11 -48 -31
-113 -44 -145 -14 -32 -30 -76 -37 -98 -17 -51 -56 -108 -115 -165 -26 -25
-55 -61 -65 -81 -20 -38 -88 -103 -127 -122 -30 -13 -29 -25 2 -37 32 -12 32
-16 -7 -36 -31 -16 -32 -16 -50 6 -20 24 -33 23 -148 -12 -89 -27 -135 -25
-192 7 -114 64 -208 219 -233 385 -14 100 -18 133 -18 197 -1 63 3 76 22 97
13 14 37 29 52 35 28 10 30 8 45 -28 20 -51 57 -68 84 -41 11 11 20 28 21 38
0 9 3 28 6 42 3 14 6 84 7 156 1 143 -7 169 -49 158 -13 -3 -26 -1 -29 5 -10
15 -22 14 -39 -3 -9 -9 -48 -17 -103 -21 -49 -4 -100 -9 -114 -11 -14 -1 -63
-6 -110 -9 -102 -8 -130 -12 -139 -20 -3 -3 7 -4 21 -1 25 4 118 9 145 7 7 -1
10 -7 7 -14 -6 -17 -101 -35 -167 -33 -28 1 -46 -3 -44 -9 3 -5 1 -19 -3 -30
-6 -18 -8 -18 -34 8 -18 18 -26 35 -23 47 5 19 1 20 -71 14 -42 -3 -77 -6 -78
-7 -1 -1 -8 -40 -14 -87 -17 -128 -20 -147 -34 -200 -19 -72 -12 -77 76 -57
102 24 187 30 204 16 14 -12 59 -144 69 -202 3 -17 10 -57 15 -87 5 -30 12
-73 15 -95 13 -83 16 -96 37 -152 61 -165 165 -298 287 -371 61 -35 224 -96
328 -122 243 -60 447 18 682 258 88 90 99 107 157 227 34 71 70 156 80 187 16
52 16 59 1 81 -16 24 -13 67 4 67 22 0 35 62 44 215 3 55 7 111 9 125 3 14 7
57 11 95 3 39 8 89 10 113 3 23 7 63 10 90 3 26 8 65 11 87 14 114 23 262 29
500 3 121 8 234 9 250 2 17 7 64 11 105 8 91 11 114 35 255 10 61 21 142 25
180 13 145 31 226 58 267 25 36 53 43 208 53 88 5 137 12 177 24 31 9 32 9 26
-17 -4 -15 -11 -35 -16 -46 -9 -17 -7 -18 47 -12 67 7 73 10 85 42 17 43 21
77 21 180 0 88 -5 129 -27 205 -6 20 -45 39 -98 45 -23 3 -52 8 -66 11 -30 6
-575 14 -581 9z m645 -81 c-6 -16 -34 -21 -34 -7 0 13 11 22 26 22 8 0 11 -6
8 -15z m-1327 -43 c2 -15 8 -42 14 -59 6 -18 8 -37 4 -43 -9 -15 -41 -12 -56
6 -19 23 -14 105 7 121 21 15 27 11 31 -25z m808 13 c99 -4 201 -8 227 -9 27
0 48 -4 48 -8 0 -3 -13 -18 -30 -31 -38 -33 -38 -43 3 -51 l32 -7 -23 -19
c-33 -27 -85 -17 -136 25 -50 40 -58 42 -171 50 -163 11 -215 19 -215 35 0 10
58 29 75 24 6 -1 91 -6 190 -9z m-469 -85 c46 -18 14 -32 -83 -37 -107 -6
-157 5 -161 35 -3 21 -1 21 106 17 61 -3 122 -9 138 -15z m371 4 c38 -10 15
-24 -41 -24 -40 0 -53 4 -53 15 0 16 50 21 94 9z m628 -56 c7 -20 13 -102 7
-115 -5 -15 -28 -17 -37 -3 -9 15 -14 82 -8 108 6 24 31 30 38 10z m-516 -74
c11 -11 -28 -34 -66 -39 -61 -8 -69 34 -8 47 21 5 66 0 74 -8z m93 -16 c-8 -8
-15 -8 -28 2 -15 13 -14 15 3 21 23 9 41 -7 25 -23z m-832 -22 c0 -15 -62 -60
-96 -70 -16 -5 -27 0 -43 20 -41 52 -29 62 72 63 50 1 67 -2 67 -13z m168 -58
c-5 -14 -65 -34 -75 -25 -3 4 0 13 7 22 15 18 74 21 68 3z m498 -123 c4 -8 3
-23 0 -32 -6 -15 -8 -15 -16 -3 -13 20 -12 50 0 50 6 0 13 -7 16 -15z m-267
-9 c7 -8 14 -23 16 -35 5 -27 -20 -28 -35 -2 -21 40 -7 68 19 37z m111 -132
c0 -16 -16 -19 -25 -4 -8 13 4 32 16 25 5 -4 9 -13 9 -21z m27 -458 c-7 -70
-38 -180 -47 -166 -9 14 -2 135 11 183 6 23 16 37 26 37 13 0 15 -9 10 -54z
m-26 -307 c6 -24 -5 -49 -23 -49 -5 0 -8 18 -6 40 2 44 19 49 29 9z m26 -854
c-7 -77 -41 -185 -59 -185 -14 0 -4 229 11 259 10 18 15 19 33 10 19 -10 20
-17 15 -84z m-1167 22 c0 -30 -10 -40 -26 -26 -10 8 -11 16 -3 30 14 26 29 24
29 -4z m-635 -57 c-3 -5 -10 -10 -16 -10 -5 0 -9 5 -9 10 0 6 7 10 16 10 8 0
12 -4 9 -10z m414 -90 c12 -35 -1 -40 -37 -14 -29 20 -28 44 2 44 18 0 27 -8
35 -30z m7 -85 c1 -8 -2 -13 -7 -9 -5 3 -9 12 -9 21 0 19 13 9 16 -12z m-106
-66 c0 -9 -31 -16 -52 -11 -25 5 -22 31 5 41 16 7 25 5 35 -7 6 -9 12 -19 12
-23z m118 9 c6 -8 6 -22 0 -37 l-9 -25 -27 27 c-23 23 -25 29 -12 37 21 13 36
12 48 -2z m-104 -76 c19 -38 36 -139 39 -232 2 -66 0 -75 -17 -78 -24 -5 -35
14 -31 55 1 18 -10 69 -26 115 -27 79 -37 147 -22 161 15 16 44 5 57 -21z
m1362 -129 c-6 -55 -57 -163 -91 -198 -25 -24 -62 -41 -72 -32 -10 10 47 120
83 159 32 36 44 56 58 101 3 9 10 17 17 17 7 0 9 -15 5 -47z m-1166 -333 c10
-6 39 -37 64 -69 34 -43 66 -71 123 -104 82 -48 136 -90 127 -99 -29 -30 -346
162 -376 227 -19 42 18 69 62 45z m574 -144 c-11 -28 -95 -50 -120 -31 -20 14
-9 24 40 36 54 13 86 11 80 -5z m436 -50 c0 -52 -220 -198 -350 -231 -124 -32
-259 -22 -348 25 l-37 19 140 -3 c130 -3 243 9 262 28 4 4 2 16 -5 26 -15 24
-6 30 98 59 41 11 111 39 155 60 44 22 81 40 83 40 1 1 2 -10 2 -23z m-1015
-16 c11 -17 -5 -32 -21 -19 -8 6 -14 15 -14 20 0 12 27 11 35 -1z m405 -95 c0
-6 -3 -15 -7 -18 -8 -8 -34 13 -28 22 7 12 35 9 35 -4z"/>
<path d="M935 1464 c-29 -31 -31 -40 -10 -48 8 -3 15 -1 15 4 0 6 -6 10 -12
10 -7 1 2 9 21 18 19 9 36 23 39 30 7 22 -28 13 -53 -14z"/>
</g>
</svg>
